<svg width="20" height="20" viewBox="0 0 20 20" fill="none" xmlns="http://www.w3.org/2000/svg">
<g id="ph:sort-ascending-bold">
<path id="Vector" d="M6.21094 5.83431L3.08594 8.95931L3.08594 8.96712L3.03125 9.02962L3.00781 9.06087L2.97656 9.09994L2.95313 9.14681L2.92969 9.17806L2.91406 9.22493L2.89063 9.264L2.875 9.30306L2.85938 9.34994L2.85938 9.39681L2.84375 9.44369L2.84375 9.80306L2.85938 9.84993L2.85938 9.89681L2.875 9.94369L2.89063 9.98275L2.91406 10.0218L2.92969 10.0687L2.95313 10.0999L2.97656 10.1468L3.00781 10.1859L3.03125 10.2171L3.09375 10.2796L3.09375 10.2874L6.21875 13.4124C6.39487 13.5886 6.63374 13.6875 6.88281 13.6875C7.13188 13.6875 7.37075 13.5886 7.54688 13.4124C7.723 13.2363 7.82194 12.9974 7.82194 12.7484C7.82194 12.4993 7.723 12.2604 7.54688 12.0843L6.01563 10.5609L16.0625 10.5609C16.3111 10.5609 16.5496 10.4621 16.7254 10.2863C16.9012 10.1105 17 9.87201 17 9.62337C17 9.37473 16.9012 9.13628 16.7254 8.96046C16.5496 8.78465 16.3111 8.68587 16.0625 8.68587L6.01563 8.68587L7.53906 7.16244C7.71518 6.98632 7.81413 6.74745 7.81413 6.49837C7.81413 6.2493 7.71518 6.01043 7.53906 5.83431C7.36294 5.65819 7.12407 5.55925 6.875 5.55925C6.62593 5.55925 6.38706 5.65819 6.21094 5.83431Z" fill="white"/>
</g>
</svg>
