<svg width="32" height="32" viewBox="0 0 32 32" fill="none" xmlns="http://www.w3.org/2000/svg">
<g id="menu">
<path id="Vector (Stroke)" fill-rule="evenodd" clip-rule="evenodd" d="M5.33331 9.33333C5.33331 8.59695 5.93027 8 6.66665 8H25.3333C26.0697 8 26.6666 8.59695 26.6666 9.33333C26.6666 10.0697 26.0697 10.6667 25.3333 10.6667H6.66665C5.93027 10.6667 5.33331 10.0697 5.33331 9.33333ZM5.33331 16C5.33331 15.2636 5.93027 14.6667 6.66665 14.6667H25.3333C26.0697 14.6667 26.6666 15.2636 26.6666 16C26.6666 16.7364 26.0697 17.3333 25.3333 17.3333H6.66665C5.93027 17.3333 5.33331 16.7364 5.33331 16ZM5.33331 22.6667C5.33331 21.9303 5.93027 21.3333 6.66665 21.3333H25.3333C26.0697 21.3333 26.6666 21.9303 26.6666 22.6667C26.6666 23.403 26.0697 24 25.3333 24H6.66665C5.93027 24 5.33331 23.403 5.33331 22.6667Z" fill="white"/>
</g>
</svg>
