<svg xmlns="http://www.w3.org/2000/svg" width="60" height="60" viewBox="0 0 60 60" fill="none">
    <path d="M41.2853 25.7454C41.4801 25.3411 41.4436 24.9197 41.2634 24.5788L40.7933 23.0298L36.6043 24.5812L33.6013 25.2071C33.1824 25.2948 32.7464 25.1706 32.4347 24.8735L27.8218 20.4701C27.0401 19.7248 25.7444 20.1973 25.6275 21.2714L24.9382 27.611C24.8919 28.0372 24.6387 28.4123 24.2611 28.6168L21.0974 30.3217L17.5538 31.6344L18.0238 33.181C18.1261 33.5146 18.3648 33.8093 18.7326 33.9749L24.5485 36.5882C24.9407 36.7636 25.2183 37.1216 25.2962 37.5429L26.0634 41.7539L25.983 42.3579L26.4507 43.8606C26.4677 43.9361 26.4896 44.0092 26.5188 44.0774V44.0871H26.5237C26.8744 44.9347 28.0289 45.1831 28.6864 44.4573L32.9705 39.7349C33.2579 39.4183 33.6841 39.2624 34.1103 39.3184L40.428 40.1684C41.3973 40.2999 42.1182 39.3696 41.8455 38.4952L41.4144 37.1021L40.5035 36.0816L38.5648 32.6963C38.3529 32.3237 38.3359 31.8707 38.521 31.4858L41.2829 25.7381L41.2853 25.7454Z" fill="url(#paint0_radial_3007_24385)"/>
    <path d="M39.9602 38.6269L33.6425 37.7769C33.2187 37.7184 32.7925 37.8743 32.5027 38.1934L28.2186 42.9158C27.4928 43.7147 26.1655 43.3372 25.9731 42.2753L24.8308 36.0014C24.7529 35.5801 24.4752 35.2221 24.0831 35.0467L18.2672 32.4334C17.2832 31.9901 17.2321 30.6117 18.1819 30.0978L23.7933 27.0729C24.1708 26.8683 24.4241 26.4932 24.4704 26.067L25.1596 19.7274C25.2765 18.6534 26.5722 18.1809 27.354 18.9261L31.9669 23.3295C32.2762 23.6266 32.7121 23.7508 33.1335 23.6632L39.3756 22.3602C40.4327 22.1386 41.2826 23.2272 40.815 24.199L38.0532 29.9468C37.8681 30.334 37.8827 30.787 38.097 31.1572L41.2656 36.6907C41.8014 37.6283 41.0318 38.773 39.9602 38.6293V38.6269Z" fill="url(#paint1_radial_3007_24385)"/>
    <path d="M26.4632 18.8363C26.6483 18.8363 26.9186 18.885 27.167 19.1237L31.7799 23.527C32.0746 23.8071 32.4618 23.963 32.8685 23.963C32.9757 23.963 33.0853 23.9508 33.19 23.9289L39.4322 22.6259C39.5053 22.6113 39.5784 22.604 39.6514 22.604C40.0021 22.604 40.3236 22.7866 40.516 23.0886C40.7084 23.3931 40.7279 23.7535 40.5696 24.0799L37.8077 29.8277C37.5837 30.2953 37.6032 30.8433 37.8613 31.2938L41.0299 36.8273C41.215 37.1488 41.215 37.5336 41.0299 37.8526C40.8424 38.1766 40.5136 38.369 40.1458 38.369C40.0971 38.369 40.0484 38.3665 39.9997 38.3592L33.6796 37.5092C33.6089 37.4995 33.5383 37.4946 33.4701 37.4946C33.0269 37.4946 32.6006 37.6822 32.3035 38.011L28.0195 42.7334C27.8222 42.9526 27.5518 43.0719 27.2645 43.0719C26.848 43.0719 26.3512 42.8065 26.244 42.2268L25.1017 35.953C25.0092 35.4415 24.6707 35.0104 24.1982 34.7985L18.3822 32.1852C18.0169 32.0221 17.7904 31.6835 17.7758 31.2841C17.7611 30.8847 17.9633 30.5315 18.3164 30.3416L23.9278 27.3167C24.3833 27.0707 24.6901 26.6152 24.7462 26.0989L25.4354 19.7593C25.5012 19.1626 26.015 18.8387 26.4656 18.8387M26.4656 18.5659C25.8421 18.5659 25.2406 19.0141 25.1626 19.7301L24.4734 26.0697C24.4271 26.4959 24.1738 26.871 23.7963 27.0756L18.1849 30.1004C17.2351 30.6119 17.2838 31.9928 18.2701 32.4361L24.0861 35.0494C24.4782 35.2247 24.7559 35.5828 24.8338 36.0041L25.9761 42.2779C26.0979 42.9501 26.6751 43.3471 27.2645 43.3471C27.6079 43.3471 27.9561 43.2132 28.2216 42.9185L32.5057 38.1961C32.7541 37.9208 33.1048 37.7674 33.4701 37.7674C33.5286 37.7674 33.587 37.7723 33.643 37.7796L39.9632 38.6296C40.024 38.6369 40.0849 38.6417 40.1458 38.6417C41.1176 38.6417 41.7727 37.575 41.2686 36.6909L38.1 31.1575C37.8881 30.7848 37.8711 30.3318 38.0562 29.947L40.818 24.1992C41.2442 23.3127 40.5745 22.3312 39.6539 22.3312C39.5637 22.3312 39.4712 22.3409 39.3786 22.3604L33.1365 23.6634C33.0488 23.6829 32.9587 23.6902 32.871 23.6902C32.5397 23.6902 32.2158 23.5636 31.9723 23.3298L27.3594 18.9264C27.0988 18.678 26.7798 18.5635 26.4681 18.5635L26.4656 18.5659Z" fill="url(#paint2_linear_3007_24385)"/>
    <g style="mix-blend-mode:multiply" opacity="0.3">
        <path d="M39.9602 38.6269L33.6425 37.7769C33.2187 37.7184 32.7925 37.8743 32.5027 38.1934L28.2186 42.9158C27.4928 43.7147 26.1655 43.3372 25.9731 42.2753L24.8308 36.0014C24.7529 35.5801 24.4752 35.2221 24.0831 35.0467L18.2672 32.4334C17.2832 31.9901 17.2321 30.6117 18.1819 30.0978L23.7933 27.0729C24.1708 26.8683 24.4241 26.4932 24.4704 26.067L25.1596 19.7274C25.2765 18.6534 26.5722 18.1809 27.354 18.9261L31.9669 23.3295C32.2762 23.6266 32.7121 23.7508 33.1335 23.6632L39.3756 22.3602C40.4327 22.1386 41.2826 23.2272 40.815 24.199L38.0532 29.9468C37.8681 30.334 37.8827 30.787 38.097 31.1572L41.2656 36.6907C41.8014 37.6283 41.0318 38.773 39.9602 38.6293V38.6269Z" fill="#DD8731"/>
        <path d="M26.4632 18.8363C26.6483 18.8363 26.9186 18.885 27.167 19.1237L31.7799 23.527C32.0746 23.8071 32.4618 23.963 32.8685 23.963C32.9757 23.963 33.0853 23.9508 33.19 23.9289L39.4322 22.6259C39.5053 22.6113 39.5784 22.604 39.6514 22.604C40.0021 22.604 40.3236 22.7866 40.516 23.0886C40.7084 23.3931 40.7279 23.7535 40.5696 24.0799L37.8077 29.8277C37.5837 30.2953 37.6032 30.8433 37.8613 31.2938L41.0299 36.8273C41.215 37.1488 41.215 37.5336 41.0299 37.8526C40.8424 38.1766 40.5136 38.369 40.1458 38.369C40.0971 38.369 40.0484 38.3665 39.9997 38.3592L33.6796 37.5092C33.6089 37.4995 33.5383 37.4946 33.4701 37.4946C33.0269 37.4946 32.6006 37.6822 32.3035 38.011L28.0195 42.7334C27.8222 42.9526 27.5518 43.0719 27.2645 43.0719C26.848 43.0719 26.3512 42.8065 26.244 42.2268L25.1017 35.953C25.0092 35.4415 24.6707 35.0104 24.1982 34.7985L18.3822 32.1852C18.0169 32.0221 17.7904 31.6835 17.7758 31.2841C17.7611 30.8847 17.9633 30.5315 18.3164 30.3416L23.9278 27.3167C24.3833 27.0707 24.6901 26.6152 24.7462 26.0989L25.4354 19.7593C25.5012 19.1626 26.015 18.8387 26.4656 18.8387M26.4656 18.5659C25.8421 18.5659 25.2406 19.0141 25.1626 19.7301L24.4734 26.0697C24.4271 26.4959 24.1738 26.871 23.7963 27.0756L18.1849 30.1004C17.2351 30.6119 17.2838 31.9928 18.2701 32.4361L24.0861 35.0494C24.4782 35.2247 24.7559 35.5828 24.8338 36.0041L25.9761 42.2779C26.0979 42.9501 26.6751 43.3471 27.2645 43.3471C27.6079 43.3471 27.9561 43.2132 28.2216 42.9185L32.5057 38.1961C32.7541 37.9208 33.1048 37.7674 33.4701 37.7674C33.5286 37.7674 33.587 37.7723 33.643 37.7796L39.9632 38.6296C40.024 38.6369 40.0849 38.6417 40.1458 38.6417C41.1176 38.6417 41.7727 37.575 41.2686 36.6909L38.1 31.1575C37.8881 30.7848 37.8711 30.3318 38.0562 29.947L40.818 24.1992C41.2442 23.3127 40.5745 22.3312 39.6539 22.3312C39.5637 22.3312 39.4712 22.3409 39.3786 22.3604L33.1365 23.6634C33.0488 23.6829 32.9587 23.6902 32.871 23.6902C32.5397 23.6902 32.2158 23.5636 31.9723 23.3298L27.3594 18.9264C27.0988 18.678 26.7798 18.5635 26.4681 18.5635L26.4656 18.5659Z" fill="#DD8731"/>
    </g>
    <path style="mix-blend-mode:screen" d="M45 45C53.2843 36.7157 53.2843 23.2843 45 15C36.7157 6.71573 23.2843 6.71573 15 15C6.71574 23.2843 6.71573 36.7157 15 45C23.2843 53.2843 36.7157 53.2843 45 45Z" fill="url(#paint3_radial_3007_24385)"/>
    <defs>
        <radialGradient id="paint0_radial_3007_24385" cx="0" cy="0" r="1" gradientUnits="userSpaceOnUse" gradientTransform="translate(24.3319 25.4032) rotate(-16.91) scale(21.8611 21.8611)">
            <stop stop-color="#DFA900"/>
            <stop offset="0.84" stop-color="#DF8500"/>
        </radialGradient>
        <radialGradient id="paint1_radial_3007_24385" cx="0" cy="0" r="1" gradientUnits="userSpaceOnUse" gradientTransform="translate(23.8629 23.853) rotate(-16.91) scale(21.8611 21.861)">
            <stop stop-color="#FFF400"/>
            <stop offset="0.16" stop-color="#FFE800"/>
            <stop offset="0.45" stop-color="#FFCA00"/>
            <stop offset="0.82" stop-color="#FF9A00"/>
            <stop offset="0.84" stop-color="#FF9800"/>
        </radialGradient>
        <linearGradient id="paint2_linear_3007_24385" x1="33.4969" y1="41.5059" x2="26.5021" y2="18.4928" gradientUnits="userSpaceOnUse">
            <stop stop-color="#FFB722"/>
            <stop offset="0.24" stop-color="#FFC633"/>
            <stop offset="0.72" stop-color="#FFE250"/>
            <stop offset="1" stop-color="#FFED5C"/>
        </linearGradient>
        <radialGradient id="paint3_radial_3007_24385" cx="0" cy="0" r="1" gradientUnits="userSpaceOnUse" gradientTransform="translate(30.2806 30.1316) rotate(-16.91) scale(19.2404 19.2404)">
            <stop stop-color="#DFA900"/>
            <stop offset="0.03" stop-color="#DFA800" stop-opacity="0.97"/>
            <stop offset="0.39" stop-color="#DFA100" stop-opacity="0.56"/>
            <stop offset="0.68" stop-color="#DF9B00" stop-opacity="0.26"/>
            <stop offset="0.89" stop-color="#DF9800" stop-opacity="0.07"/>
            <stop offset="1" stop-color="#DF9700" stop-opacity="0"/>
        </radialGradient>
    </defs>
</svg>