<svg width="20" height="20" viewBox="0 0 20 20" fill="none" xmlns="http://www.w3.org/2000/svg">
<g id="Layer 2">
<path id="Vector" d="M4.94971 19.495C4.55913 19.4925 4.17871 19.3704 3.85971 19.145C3.56725 18.9427 3.33853 18.6612 3.20038 18.3336C3.06223 18.0059 3.02037 17.6456 3.07971 17.295L3.85971 12.555L0.539708 9.15502C0.296671 8.90686 0.126721 8.59652 0.0485209 8.25809C-0.0296788 7.91967 -0.0131032 7.56623 0.0964273 7.23661C0.205958 6.90698 0.404207 6.61391 0.669402 6.38959C0.934598 6.16527 1.25648 6.01837 1.59971 5.96502L6.10971 5.27502L8.10971 1.08502C8.26244 0.760568 8.50433 0.486267 8.80712 0.294143C9.10991 0.102019 9.46111 0 9.81971 0C10.1783 0 10.5295 0.102019 10.8323 0.294143C11.1351 0.486267 11.377 0.760568 11.5297 1.08502L13.5297 5.27502L18.0397 5.96502C18.3829 6.01837 18.7048 6.16527 18.97 6.38959C19.2352 6.61391 19.4335 6.90698 19.543 7.23661C19.6525 7.56623 19.6691 7.91967 19.5909 8.25809C19.5127 8.59652 19.3427 8.90686 19.0997 9.15502L15.7797 12.555L16.5597 17.295C16.6264 17.6483 16.5909 18.0133 16.4575 18.3472C16.324 18.681 16.0981 18.9699 15.8063 19.1798C15.5144 19.3898 15.1687 19.5122 14.8098 19.5326C14.4508 19.553 14.0935 19.4706 13.7797 19.295L9.78971 17.085L5.85971 19.255C5.58163 19.4109 5.26848 19.4935 4.94971 19.495ZM9.78971 1.49502C9.71467 1.49206 9.64058 1.51264 9.57782 1.55388C9.51506 1.59512 9.46677 1.65496 9.43971 1.72502L7.29971 6.27502C7.25251 6.39537 7.1754 6.50169 7.07566 6.58394C6.97592 6.66618 6.85685 6.72162 6.72971 6.74502L1.78971 7.45502C1.71837 7.46358 1.65107 7.49272 1.59602 7.53889C1.54097 7.58506 1.50056 7.64626 1.47971 7.71502C1.4561 7.78347 1.45201 7.85715 1.4679 7.9278C1.4838 7.99844 1.51905 8.06327 1.56971 8.11502L5.18971 11.745C5.27154 11.8284 5.33306 11.9295 5.36948 12.0405C5.4059 12.1515 5.41625 12.2694 5.39971 12.385L4.55971 17.495C4.54857 17.5684 4.55757 17.6435 4.58575 17.7122C4.61393 17.7808 4.66023 17.8406 4.71971 17.885C4.78242 17.9251 4.85529 17.9464 4.92971 17.9464C5.00413 17.9464 5.077 17.9251 5.13971 17.885L9.42971 15.515C9.53882 15.4508 9.66311 15.417 9.78971 15.417C9.9163 15.417 10.0406 15.4508 10.1497 15.515L14.4397 17.885C14.5024 17.9251 14.5753 17.9464 14.6497 17.9464C14.7241 17.9464 14.797 17.9251 14.8597 17.885C14.9192 17.8406 14.9655 17.7808 14.9937 17.7122C15.0218 17.6435 15.0308 17.5684 15.0197 17.495L14.1797 12.385C14.1632 12.2694 14.1735 12.1515 14.2099 12.0405C14.2464 11.9295 14.3079 11.8284 14.3897 11.745L17.9697 8.07502C18.0204 8.02327 18.0556 7.95844 18.0715 7.8878C18.0874 7.81715 18.0833 7.74347 18.0597 7.67502C18.0362 7.619 17.9993 7.56963 17.9522 7.53126C17.9051 7.49289 17.8493 7.46671 17.7897 7.45502L12.8497 6.74502C12.7267 6.72551 12.6105 6.6761 12.5111 6.60112C12.4117 6.52614 12.3322 6.42789 12.2797 6.31502L10.1397 1.74502C10.116 1.67123 10.0692 1.60704 10.0061 1.562C9.94309 1.51696 9.86718 1.49347 9.78971 1.49502Z" fill="white"/>
</g>
</svg>
