<svg xmlns="http://www.w3.org/2000/svg" width="160" height="16" viewBox="0 0 160 16" fill="none">
    <path d="M6.99124 6.58456L5.6007 9.41887H12.192L13.6649 6.58447L6.99124 6.58456Z" fill="#2AAAFD"/>
    <path d="M15.8286 11.6841L15.0649 13.1655H1.38914L-7.62939e-06 15.9999H13.645L13.6476 15.9947L19.2656 15.9897L15.8286 11.6841Z" fill="#2AAAFD"/>
    <path d="M5.66045 0L0.00405121 0.00509466L3.44091 4.31058L4.19954 2.83694H17.7882L19.2619 0.00254733H5.6579L5.66045 0Z" fill="#2AAAFD"/>
    <path d="M30.9556 0.0258789H36.801L35.3824 8.06188C35.1216 9.51554 34.6813 10.7487 34.0617 11.7614C33.4585 12.7577 32.7003 13.5744 31.7872 14.2114C30.8741 14.832 29.8143 15.2894 28.6077 15.5834C27.4012 15.861 26.0805 15.9999 24.6456 15.9999H21.7841L22.6401 11.1979H26.0152C27.1403 11.1162 27.9637 10.814 28.4854 10.2914C29.0235 9.75238 29.3741 9.00921 29.5371 8.06188L30.9556 0.0258789Z" fill="url(#paint0_linear_3007_20850)"/>
    <path d="M50.9777 10.1199H42.6621L42.4909 11.1979H51.4668L50.6108 15.9999H35.8385L38.6511 0.0258789H53.4234L52.5674 4.82788H43.5915L43.4203 5.90588H51.7358L50.9777 10.1199Z" fill="url(#paint1_linear_3007_20850)"/>
    <path d="M60.2254 4.82788H63.9674C64.5381 4.82788 64.9294 4.95854 65.1414 5.21988C65.3696 5.48121 65.4838 5.82421 65.4838 6.24888C65.4838 6.54288 65.4593 6.84504 65.4104 7.15538L65.0924 8.89488C65.0435 9.20521 64.9702 9.49921 64.8723 9.77688C64.7908 10.0545 64.6604 10.2995 64.481 10.5119C64.318 10.7242 64.106 10.8957 63.8451 11.0264C63.5842 11.1407 63.2581 11.1979 62.8668 11.1979H59.1248L60.2254 4.82788ZM52.4724 15.9999H65.1658C65.6387 15.9999 66.1604 15.861 66.7311 15.5834C67.3181 15.3057 67.8724 14.9545 68.3942 14.5299C68.916 14.0889 69.3643 13.5989 69.7394 13.0599C70.1307 12.5209 70.3752 11.99 70.4731 11.4674L71.6715 4.55838C71.6878 4.47671 71.6959 4.40321 71.6959 4.33788C71.7122 4.25621 71.7204 4.17454 71.7204 4.09288C71.7204 3.60288 71.6063 3.12104 71.378 2.64738C71.1497 2.15738 70.8481 1.71638 70.4731 1.32438C70.1144 0.932378 69.7149 0.622045 69.2747 0.393378C68.8344 0.148379 68.4023 0.0258789 67.9784 0.0258789H55.285L52.4724 15.9999Z" fill="url(#paint2_linear_3007_20850)"/>
    <path d="M77.315 15.9999L80.1276 0.0258789H74.3312L71.5186 15.9999H77.315Z" fill="url(#paint3_linear_3007_20850)"/>
    <path d="M79.1721 15.9999H90.8627C91.3192 15.9999 91.7513 15.9182 92.1589 15.7549C92.5829 15.5915 92.9579 15.3629 93.284 15.0689C93.6101 14.7749 93.8873 14.4319 94.1155 14.0399C94.3438 13.6479 94.4987 13.215 94.5802 12.7414C94.6291 12.431 94.6536 12.1289 94.6536 11.8349C94.6536 11.1815 94.5313 10.5609 94.2867 9.97287C94.0585 9.38488 93.7568 8.81321 93.3818 8.25788C93.0068 7.68621 92.591 7.12271 92.1345 6.56738C91.6943 6.01204 91.2622 5.43221 90.8382 4.82788H97.7597L98.6157 0.0258789H88.1724C87.6995 0.0258789 87.2349 0.123879 86.7783 0.319878C86.3218 0.499545 85.906 0.752711 85.531 1.07938C85.156 1.40604 84.8299 1.79804 84.5527 2.25538C84.2918 2.69638 84.1125 3.17821 84.0146 3.70088C83.9657 3.92954 83.9413 4.12554 83.9413 4.28888V4.43588C83.9902 5.07288 84.1532 5.69354 84.4304 6.29788C84.7239 6.90221 85.0663 7.49021 85.4576 8.06188C85.8489 8.61721 86.2647 9.15621 86.7049 9.67887C87.1615 10.2015 87.5773 10.7079 87.9523 11.1979H80.0281L79.1721 15.9999Z" fill="url(#paint4_linear_3007_20850)"/>
    <path d="M115.865 6.07738L114.936 0.0258789H109.8L106.645 6.07738L105.74 0.0258789H100.017L102.194 15.9999H107.965L110.778 9.70338L111.39 15.9999H117.161L124.963 0.0258789H118.996L115.865 6.07738Z" fill="url(#paint5_linear_3007_20850)"/>
    <path d="M133.302 13.5499H127.383L126.111 15.9999H120.144L127.945 0.0258789H137.239L139.416 15.9999H133.693L133.302 13.5499ZM129.413 9.28687H132.764L131.981 4.23988L129.413 9.28687Z" fill="url(#paint6_linear_3007_20850)"/>
    <path d="M146.597 15.9999H140.801L143.614 0.0258789H155.964C156.519 0.0258789 157.041 0.148379 157.53 0.393378C158.019 0.638378 158.443 0.965045 158.802 1.37338C159.177 1.78171 159.47 2.23904 159.682 2.74538C159.894 3.25171 160 3.76621 160 4.28888C160 4.38688 159.992 4.48488 159.976 4.58288C159.976 4.68088 159.967 4.77888 159.951 4.87688L159.609 6.81238C159.511 7.35138 159.266 7.91488 158.875 8.50288C158.484 9.07454 158.011 9.59721 157.456 10.0709C156.918 10.5445 156.331 10.9365 155.695 11.2469C155.076 11.5409 154.481 11.6879 153.91 11.6879H147.355L146.597 15.9999ZM148.187 6.95938H152.125C152.728 6.95938 153.144 6.86954 153.372 6.68988C153.6 6.51021 153.755 6.24888 153.837 5.90588L153.861 5.66088C153.861 5.39954 153.771 5.19538 153.592 5.04838C153.413 4.90138 153.046 4.82788 152.492 4.82788H148.554L148.187 6.95938Z" fill="url(#paint7_linear_3007_20850)"/>
    <defs>
        <linearGradient id="paint0_linear_3007_20850" x1="20.6784" y1="9.06687" x2="159.448" y2="8.58934" gradientUnits="userSpaceOnUse">
            <stop stop-color="#2BA9FD"/>
            <stop offset="0.524146" stop-color="#8462F5"/>
            <stop offset="1" stop-color="#EF0DEB"/>
        </linearGradient>
        <linearGradient id="paint1_linear_3007_20850" x1="20.6784" y1="9.06687" x2="159.448" y2="8.58934" gradientUnits="userSpaceOnUse">
            <stop stop-color="#2BA9FD"/>
            <stop offset="0.524146" stop-color="#8462F5"/>
            <stop offset="1" stop-color="#EF0DEB"/>
        </linearGradient>
        <linearGradient id="paint2_linear_3007_20850" x1="20.6784" y1="9.06687" x2="159.448" y2="8.58934" gradientUnits="userSpaceOnUse">
            <stop stop-color="#2BA9FD"/>
            <stop offset="0.524146" stop-color="#8462F5"/>
            <stop offset="1" stop-color="#EF0DEB"/>
        </linearGradient>
        <linearGradient id="paint3_linear_3007_20850" x1="20.6784" y1="9.06687" x2="159.448" y2="8.58934" gradientUnits="userSpaceOnUse">
            <stop stop-color="#2BA9FD"/>
            <stop offset="0.524146" stop-color="#8462F5"/>
            <stop offset="1" stop-color="#EF0DEB"/>
        </linearGradient>
        <linearGradient id="paint4_linear_3007_20850" x1="20.6784" y1="9.06687" x2="159.448" y2="8.58934" gradientUnits="userSpaceOnUse">
            <stop stop-color="#2BA9FD"/>
            <stop offset="0.524146" stop-color="#8462F5"/>
            <stop offset="1" stop-color="#EF0DEB"/>
        </linearGradient>
        <linearGradient id="paint5_linear_3007_20850" x1="20.6784" y1="9.06687" x2="159.448" y2="8.58934" gradientUnits="userSpaceOnUse">
            <stop stop-color="#2BA9FD"/>
            <stop offset="0.524146" stop-color="#8462F5"/>
            <stop offset="1" stop-color="#EF0DEB"/>
        </linearGradient>
        <linearGradient id="paint6_linear_3007_20850" x1="20.6784" y1="9.06687" x2="159.448" y2="8.58934" gradientUnits="userSpaceOnUse">
            <stop stop-color="#2BA9FD"/>
            <stop offset="0.524146" stop-color="#8462F5"/>
            <stop offset="1" stop-color="#EF0DEB"/>
        </linearGradient>
        <linearGradient id="paint7_linear_3007_20850" x1="20.6784" y1="9.06687" x2="159.448" y2="8.58934" gradientUnits="userSpaceOnUse">
            <stop stop-color="#2BA9FD"/>
            <stop offset="0.524146" stop-color="#8462F5"/>
            <stop offset="1" stop-color="#EF0DEB"/>
        </linearGradient>
    </defs>
</svg>